<svg xmlns="http://www.w3.org/2000/svg" width="60" height="44" viewBox="0 0 60 44">
    <path fill="#009AA6" fill-rule="evenodd" d="M30.009 0L11.713 31.69H0v1h11.136L5.141 43.074h49.727L48.86 32.666h11.141v-1H48.284l-2.437-4.223h11.196v-1H45.269l-2.421-4.196h11.166v-1H42.271L39.878 17.1h11.158v-1H39.302L30.009 0zm0 2l8.137 14.1h-5.431l-5.967 10.343h-.045l-2.971 5.223h-5.734v.024h-5.13L30.009 2zm3.284 15.1h5.43l2.394 4.147H30.901l2.392-4.147zm-2.964 5.147h11.364l2.422 4.196H27.906l2.423-4.196zm-3 5.196h17.363l2.436 4.223H24.89l2.439-4.223zM12.291 32.69h12.01l.014-.024h23.392l5.428 9.408H6.874l5.417-9.384z"/>
</svg>
